<svg height="120" viewBox="0 0 180 120" width="180" xmlns="http://www.w3.org/2000/svg" xmlns:sketch="http://www.bohemiancoding.com/sketch/ns"><g id="Page-1" fill="none" fill-rule="evenodd"><g id="Material" transform="translate(-540 -540)"><g id="Slice" transform="translate(180 180)"/><g id="round_rectangle_europe" transform="translate(540 540)"><path id="rounded" d="m20 0s-20 0-20 20v80c.00000106 20 20 20 20 20h140s20 0 20-20v-80c0-20-20-20-20-20z" fill="#2b98f0"/><path id="Star-2" d="m89.9999998 27.1445312-4.7022814 2.6266448.8980556-5.5633224-3.8042262-3.9399666 5.2573119-.8116786 2.3511404-5.0616771 2.3511418 5.0616784 5.2573115.8116813-3.8042277 3.9399637.8980558 5.5633214zm16.4277342 4.4017981-5.385617-.0763996 3.5594-4.3689507-1.324573-5.3142243 4.958805 1.9257217 4.566985-3.2079708-.49469 5.559113 4.147124 3.3315924-5.264539 1.5099948-2.003922 5.2670055zm12.025937 12.0259362-4.625882-2.7589729 5.267006-2.0039222 1.509998-5.2645398 3.33159 4.1471264 5.559112-.4946913-3.207972 4.5669877 1.925719 4.9588061-5.314222-1.3245761-4.36895 3.5593999zm4.401798 16.4277343-2.626645-4.7022814 5.563322.8980556 3.939967-3.8042262.811679 5.2573119 5.061677 2.3511404-5.061679 2.3511418-.811681 5.2573115-3.939964-3.8042277-5.563321.8980558zm-4.401798 16.4277344.076399-5.3856176 4.368951 3.5594002 5.314224-1.3245732-1.925721 4.958805 3.20797 4.5669859-5.559113-.4946908-3.331592 4.1471247-1.509995-5.2645397-5.267005-2.0039215zm-12.025936 12.0259363 2.758972-4.6258818 2.003923 5.2670063 5.264539 1.5099981-4.147126 3.3315902.494691 5.5591112-4.566987-3.2079712-4.958806 1.9257191 1.324576-5.3142225-3.5594-4.3689497zm-16.4277348 4.4017983 4.7022814-2.6266448-.8980556 5.5633224 3.8042262 3.9399666-5.2573119.811679-2.3511404 5.061677-2.3511418-5.061679-5.2573115-.811681 3.8042277-3.9399637-.8980558-5.5633214zm-16.4277344-4.4017981 5.3856176.0763996-3.5594002 4.3689507 1.3245732 5.3142243-4.958805-1.9257217-4.5669859 3.2079708.4946908-5.559113-4.1471247-3.3315924 5.2645397-1.5099948 2.0039215-5.2670055zm-12.0259363-12.0259362 4.6258818 2.7589729-5.2670063 2.0039222-1.5099981 5.2645398-3.3315902-4.1471264-5.5591112.4946913 3.2079712-4.5669877-1.9257191-4.9588061 5.3142225 1.3245761 4.3689497-3.5593999zm-4.4017983-16.4277343 2.6266448 4.7022814-5.5633224-.8980556-3.9399666 3.8042262-.8116786-5.2573119-5.0616772-2.3511404 5.0616785-2.3511418.8116813-5.2573115 3.9399637 3.8042277 5.5633214-.8980558zm4.4017981-16.4277344-.0763996 5.3856176-4.3689507-3.5594002-5.3142243 1.3245732 1.9257217-4.958805-3.2079708-4.5669859 5.559113.4946908 3.3315924-4.1471247 1.5099948 5.2645397 5.2670055 2.0039215zm12.0259362-12.0259363-2.7589729 4.6258818-2.0039222-5.2670063-5.2645398-1.5099981 4.1471264-3.3315902-.4946913-5.5591112 4.5669877 3.2079712 4.9588061-1.9257191-1.3245761 5.3142225 3.5593999 4.3689497z" fill="#fee94e"/></g></g></g></svg>